<svg width="179" height="33" viewBox="0 0 179 33" fill="none" xmlns="http://www.w3.org/2000/svg">
<path d="M55.3651 20.3014C56.2476 20.3014 57.0344 20.1109 57.7255 19.7249C58.4166 19.3389 58.9695 18.7924 59.3895 18.0755C59.8094 17.3586 60.0168 16.5113 60.0168 15.5287C60.0168 14.546 59.8094 13.6737 59.3895 12.9668C58.9695 12.2599 58.4166 11.7235 57.7255 11.3525C57.0344 10.9765 56.2476 10.791 55.3651 10.791C54.4827 10.791 53.6906 10.9765 52.9888 11.3525C52.2871 11.7235 51.7289 12.2649 51.3089 12.9668C50.8889 13.6737 50.6816 14.526 50.6816 15.5287C50.6816 16.5313 50.8889 17.3586 51.3089 18.0755C51.7289 18.7924 52.2871 19.3389 52.9888 19.7249C53.6906 20.1109 54.4827 20.3014 55.3651 20.3014ZM56.2476 24.4024C54.7325 24.4024 53.3982 24.0816 52.2392 23.4399C51.0856 22.7981 50.1872 21.8255 49.5386 20.512C48.8954 19.1985 48.5711 17.539 48.5711 15.5337C48.5711 13.5283 48.8741 11.8438 49.4908 10.5403C50.1022 9.2368 50.9899 8.26921 52.1542 7.62749C53.3184 6.98577 54.6847 6.66992 56.2476 6.66992C57.9913 6.66992 59.5489 7.0359 60.9152 7.77288C62.2868 8.50985 63.3713 9.53761 64.174 10.8612C64.9767 12.1847 65.3808 13.7439 65.3808 15.5337C65.3808 17.3235 64.9767 18.9127 64.174 20.2263C63.3713 21.5398 62.2868 22.5625 60.9152 23.2995C59.5436 24.0365 57.9913 24.4024 56.2476 24.4024ZM45.4824 30.0476V6.92059H50.5434V10.44L50.4424 15.5638L50.7826 20.6574V30.0476H45.4877H45.4824Z" fill="#3F3B3A"/>
<path d="M78.0655 24.396C75.9816 24.396 74.1634 24.0099 72.6005 23.2429C71.0375 22.4758 69.8255 21.423 68.9696 20.0894C68.1083 18.7559 67.6777 17.2368 67.6777 15.5272C67.6777 13.8176 68.0924 12.2935 68.9164 10.9499C69.7404 9.60635 70.8993 8.55352 72.3772 7.7965C73.8604 7.03947 75.5297 6.65845 77.385 6.65845C79.2403 6.65845 80.7874 7.01941 82.2227 7.74636C83.6581 8.47331 84.7957 9.49605 85.6357 10.8196C86.4703 12.1431 86.8903 13.7324 86.8903 15.5924C86.8903 15.7829 86.8797 16.0035 86.8584 16.2491C86.8371 16.4948 86.8105 16.7254 86.7893 16.936H71.9519V14.0232H84.0036L81.9303 14.8855C81.9516 13.9881 81.7708 13.211 81.3881 12.5492C81 11.8875 80.4737 11.3711 79.7932 10.9951C79.1128 10.6241 78.3207 10.4336 77.4169 10.4336C76.5132 10.4336 75.7157 10.6191 75.0246 10.9951C74.3335 11.3711 73.7966 11.8925 73.4139 12.5643C73.0311 13.2361 72.8344 14.0332 72.8344 14.9507V15.7177C72.8344 16.6803 73.063 17.5125 73.5149 18.2144C73.9667 18.9163 74.5887 19.4577 75.3808 19.8287C76.1729 20.1997 77.1245 20.3902 78.2356 20.3902C79.1872 20.3902 80.0271 20.2499 80.7661 19.9741C81.4997 19.6984 82.1749 19.2823 82.7862 18.7258L85.6038 21.6085C84.7638 22.5059 83.7112 23.1928 82.446 23.674C81.1807 24.1553 79.7188 24.396 78.0655 24.396Z" fill="#3F3B3A"/>
<path d="M97.7441 24.3963C95.591 24.3963 93.9165 23.8799 92.7203 22.8421C91.5189 21.8094 90.9181 20.2652 90.9181 18.2148V3.09924H96.2502V18.1145C96.2502 18.8414 96.4469 19.4079 96.8456 19.814C97.239 20.2201 97.7813 20.4207 98.4564 20.4207C99.3177 20.4207 100.041 20.2051 100.631 19.7789L102.024 23.2984C101.503 23.6644 100.865 23.9351 100.104 24.1156C99.3442 24.296 98.5574 24.3863 97.7441 24.3863M88.1006 7.28546H100.764V11.1258H88.1006V7.28546Z" fill="#3F3B3A"/>
<path d="M115.695 6.65845C117.146 6.65845 118.438 6.92917 119.581 7.47564C120.724 8.0221 121.622 8.85433 122.282 9.97233C122.935 11.0953 123.265 12.5292 123.265 14.2789V24.1403H117.97V15.0459C117.97 13.6572 117.646 12.6345 117.003 11.9727C116.359 11.3109 115.445 10.98 114.27 10.98C113.43 10.98 112.681 11.1505 112.011 11.4914C111.341 11.8323 110.82 12.3337 110.448 12.9954C110.076 13.6572 109.89 14.5346 109.89 15.6225V24.1403H104.595V6.91413H109.656V11.6869L108.704 10.2481C109.363 9.09498 110.299 8.2076 111.522 7.59094C112.744 6.97429 114.137 6.66346 115.695 6.66346" fill="#3F3B3A"/>
<path d="M136.229 20.3001C137.133 20.3001 137.93 20.1146 138.621 19.7386C139.312 19.3626 139.865 18.8161 140.285 18.0892C140.705 17.3622 140.912 16.51 140.912 15.5273C140.912 14.5447 140.705 13.6724 140.285 12.9655C139.865 12.2636 139.312 11.7221 138.621 11.3511C137.93 10.9801 137.143 10.7896 136.261 10.7896C135.378 10.7896 134.586 10.9751 133.884 11.3511C133.183 11.7221 132.624 12.2636 132.205 12.9655C131.785 13.6724 131.577 14.5246 131.577 15.5273C131.577 16.53 131.785 17.3622 132.205 18.0892C132.624 18.8161 133.183 19.3626 133.884 19.7386C134.586 20.1146 135.368 20.3001 136.229 20.3001ZM136.229 24.4011C134.304 24.4011 132.587 24.0151 131.083 23.248C129.578 22.481 128.398 21.4281 127.537 20.0946C126.676 18.761 126.245 17.2419 126.245 15.5323C126.245 13.8228 126.676 12.2736 127.537 10.94C128.398 9.60646 129.578 8.55865 131.083 7.80162C132.587 7.0446 134.304 6.66357 136.229 6.66357C138.153 6.66357 139.908 7.0446 141.423 7.80162C142.938 8.55865 144.129 9.60646 144.99 10.94C145.851 12.2736 146.282 13.8077 146.282 15.5323C146.282 17.257 145.851 18.7861 144.99 20.1096C144.129 21.4331 142.943 22.481 141.423 23.248C139.908 24.0151 138.175 24.4011 136.229 24.4011Z" fill="#3F3B3A"/>
<path d="M174.023 6.91528L169.589 18.6567L165.23 6.91528H160.717L156.241 18.5414L151.956 6.91528H146.964L153.551 24.1414H158.681L162.864 13.4027L166.995 24.1414H172.088L178.712 6.91528H174.023Z" fill="#3F3B3A"/>
<path d="M31.9181 17.3164L30.9187 16.3739L31.9181 15.4314C35.6607 11.9019 35.6607 6.17655 31.9181 2.64709C28.1756 -0.882365 22.1045 -0.882365 18.362 2.64709L17.3625 3.58962L16.3631 2.64709C12.6205 -0.882365 6.54949 -0.882365 2.80693 2.64709C-0.935642 6.17655 -0.935642 11.9019 2.80693 15.4314L3.80636 16.3739L2.80693 17.3164C-0.935642 20.8459 -0.935642 26.5712 2.80693 30.1007C6.54418 33.6251 12.5993 33.6301 16.3418 30.1157L12.9927 26.9572C11.1001 28.722 8.03801 28.717 6.1561 26.9422C4.27418 25.1674 4.26355 22.2596 6.1561 20.4749L10.5047 16.3739L6.1561 12.2729C4.26887 10.4931 4.26887 7.59034 6.1561 5.81057C8.04865 4.02579 11.1214 4.02579 13.0139 5.81057L17.3625 9.91156L21.7111 5.81057C23.5984 4.0308 26.6764 4.0308 28.569 5.81057C30.4562 7.59034 30.4562 10.4931 28.569 12.2729L24.2204 16.3739L28.569 20.4749C30.4562 22.2546 30.4562 25.1574 28.569 26.9372C26.6764 28.722 23.6037 28.722 21.7111 26.9372L17.5486 23.0117L16.1983 21.7382C15.5604 21.1366 15.5604 20.154 16.1983 19.5524C16.8362 18.9508 17.8782 18.9508 18.5161 19.5524C19.1541 20.154 19.1541 21.1366 18.5161 21.7382L18.3726 21.8736L21.7218 25.0321L21.8653 24.8967C24.3586 22.5454 24.3586 18.7402 21.8653 16.3889C19.372 14.0376 15.3371 14.0376 12.8438 16.3889C10.3505 18.7402 10.3505 22.5454 12.8438 24.8967L14.0027 25.9896L17.3519 29.1481L17.9101 29.6745L18.3513 30.0906C22.0939 33.6201 28.1649 33.6201 31.9075 30.0906C35.6501 26.5612 35.6501 20.8358 31.9075 17.3064L31.9181 17.3164Z" fill="#FF592C"/>
</svg>
